<svg xmlns="http://www.w3.org/2000/svg" xmlns:xlink="http://www.w3.org/1999/xlink" width="170" height="21.292" viewBox="0 0 170 21.292">
  <defs>
    <style>
      .cls-1 {
        fill: #fff;
      }

      .cls-2 {
        fill: url(#linear-gradient);
      }
    </style>
    <linearGradient id="linear-gradient" x1="-0.143" y1="1.127" x2="1.078" y2="-0.145" gradientUnits="objectBoundingBox">
      <stop offset="0.181" stop-color="#f45656"/>
      <stop offset="0.253" stop-color="#d9556a"/>
      <stop offset="0.482" stop-color="#8753a8"/>
      <stop offset="0.588" stop-color="#6753c1"/>
      <stop offset="0.7" stop-color="#4e6cd3"/>
      <stop offset="0.898" stop-color="#2794f0"/>
      <stop offset="1" stop-color="#19a4fc"/>
    </linearGradient>
  </defs>
  <g id="아트웍_1" data-name="아트웍 1" transform="translate(85 10.646)">
    <g id="그룹_2848" data-name="그룹 2848" transform="translate(-85 -10.646)">
      <g id="그룹_2847" data-name="그룹 2847">
        <path id="패스_1508" data-name="패스 1508" class="cls-1" d="M10.21,29.322V19.475a4.959,4.959,0,0,0-.984-3.221A3.239,3.239,0,0,0,6.574,15.04a4.547,4.547,0,0,0-1.954.406,4.22,4.22,0,0,0-1.469,1.129,4.971,4.971,0,0,0-.925,1.772,7.853,7.853,0,0,0-.318,2.3v8.674H0V13.9H1.726v2.678a4.81,4.81,0,0,1,2.015-2.3,6.416,6.416,0,0,1,3.136-.71,4.848,4.848,0,0,1,3.908,1.563,6.623,6.623,0,0,1,1.334,4.434v9.762Z" transform="translate(0 -8.391)"/>
        <path id="패스_1509" data-name="패스 1509" class="cls-1" d="M48.618,29.321H46.881V27.063a5.5,5.5,0,0,1-2.363,2.063,6.94,6.94,0,0,1-2.7.558A5.058,5.058,0,0,1,38.139,28.4a4.393,4.393,0,0,1-1.317-3.291,4.223,4.223,0,0,1,2.09-3.779A11.48,11.48,0,0,1,45,20.005h.212c.02.316.03.578.03.781v.5c0,.149-.01.222-.03.222a9.776,9.776,0,0,0-4.742.991,2.9,2.9,0,0,0-1.561,2.606,3.093,3.093,0,0,0,.773,2.231,3.322,3.322,0,0,0,2.5.81,4.12,4.12,0,0,0,3.377-1.38A5.506,5.506,0,0,0,46.7,23.156v-4.49a3.585,3.585,0,0,0-.925-2.733,3.737,3.737,0,0,0-2.651-.866,9.241,9.241,0,0,0-2.363.32,7.967,7.967,0,0,0-2.121.88L38.034,15.1c.121-.075.358-.2.712-.376a11.372,11.372,0,0,1,1.242-.515,14.372,14.372,0,0,1,1.56-.447,7.408,7.408,0,0,1,1.668-.194,5.667,5.667,0,0,1,4.028,1.284,4.96,4.96,0,0,1,1.364,3.792v8.368Z" transform="translate(-22.781 -8.391)"/>
        <path id="패스_1510" data-name="패스 1510" class="cls-1" d="M268.861,29.321h-1.737V27.063a5.5,5.5,0,0,1-2.362,2.063,6.947,6.947,0,0,1-2.7.558,5.06,5.06,0,0,1-3.682-1.284,4.392,4.392,0,0,1-1.317-3.291,4.224,4.224,0,0,1,2.091-3.779,11.479,11.479,0,0,1,6.09-1.324h.212c.02.316.03.578.03.781v.5c0,.149-.011.222-.03.222a9.775,9.775,0,0,0-4.741.991,2.9,2.9,0,0,0-1.561,2.606,3.093,3.093,0,0,0,.773,2.231,3.319,3.319,0,0,0,2.5.81,4.122,4.122,0,0,0,3.378-1.38,5.508,5.508,0,0,0,1.137-3.614v-4.49a3.585,3.585,0,0,0-.925-2.733,3.737,3.737,0,0,0-2.65-.866,9.249,9.249,0,0,0-2.364.32,7.989,7.989,0,0,0-2.121.88l-.606-1.172c.12-.075.359-.2.712-.376a11.341,11.341,0,0,1,1.242-.515,14.3,14.3,0,0,1,1.56-.447,7.4,7.4,0,0,1,1.668-.194,5.667,5.667,0,0,1,4.028,1.284,4.962,4.962,0,0,1,1.364,3.792v8.368Z" transform="translate(-159.039 -8.391)"/>
        <path id="패스_1511" data-name="패스 1511" class="cls-1" d="M82.151,27.047a3.994,3.994,0,0,1-1.122,1.41,5.261,5.261,0,0,1-1.741.906,7.555,7.555,0,0,1-2.287.32,12.357,12.357,0,0,1-2.394-.235,6.677,6.677,0,0,1-1.757-.546l.212-1.73a2.035,2.035,0,0,0,.514.279,7.51,7.51,0,0,0,.939.322,12.013,12.013,0,0,0,1.2.265A7.576,7.576,0,0,0,77,28.15a4.232,4.232,0,0,0,1.348-.208,3.905,3.905,0,0,0,1.106-.572,2.669,2.669,0,0,0,.757-.864,2.25,2.25,0,0,0,.273-1.089,2.627,2.627,0,0,0-.257-1.184,2.848,2.848,0,0,0-.713-.908,5.679,5.679,0,0,0-1.06-.713c-.4-.212-.828-.422-1.272-.627s-.908-.428-1.394-.668a6.936,6.936,0,0,1-1.332-.865,4.293,4.293,0,0,1-1-1.186,3.155,3.155,0,0,1-.393-1.6,3.9,3.9,0,0,1,.378-1.743,3.707,3.707,0,0,1,1.029-1.282,4.667,4.667,0,0,1,1.576-.794,6.877,6.877,0,0,1,2.015-.28,8.624,8.624,0,0,1,1.06.069c.383.048.756.106,1.121.182s.691.153.985.237a5.11,5.11,0,0,1,.682.236L81.7,15.765a9.464,9.464,0,0,0-1.651-.486,8.934,8.934,0,0,0-1.864-.211,3.58,3.58,0,0,0-2.424.7,2.378,2.378,0,0,0-.788,1.87,2.009,2.009,0,0,0,.985,1.631,12.49,12.49,0,0,0,2.44,1.325,9.661,9.661,0,0,1,3.045,1.885,3.654,3.654,0,0,1,1.106,2.746A4.181,4.181,0,0,1,82.151,27.047Z" transform="translate(-45.07 -8.391)"/>
        <path id="패스_1512" data-name="패스 1512" class="cls-1" d="M122.191,29.322V19.475a5.51,5.51,0,0,0-.848-3.237,2.767,2.767,0,0,0-2.394-1.2,3.674,3.674,0,0,0-3.151,1.535,6.743,6.743,0,0,0-1.122,4.073v8.674h-1.908V19.475a5.439,5.439,0,0,0-.864-3.237,2.805,2.805,0,0,0-2.408-1.2,3.676,3.676,0,0,0-3.152,1.535,6.748,6.748,0,0,0-1.121,4.073v8.674h-1.91V13.9h1.727v2.678a4.753,4.753,0,0,1,1.924-2.3,6.006,6.006,0,0,1,3.046-.71,4.682,4.682,0,0,1,2.7.781,3.409,3.409,0,0,1,1.425,2.37,4.911,4.911,0,0,1,1.817-2.3,5.517,5.517,0,0,1,3.182-.85,4.48,4.48,0,0,1,3.711,1.563,6.906,6.906,0,0,1,1.257,4.434v9.762Z" transform="translate(-63.917 -8.391)"/>
        <path id="패스_1513" data-name="패스 1513" class="cls-1" d="M166.225,22.042l.03-1.451h7.273a7.463,7.463,0,0,0-1.06-4.058,3.221,3.221,0,0,0-2.82-1.465,4.159,4.159,0,0,0-3.514,1.814,7.506,7.506,0,0,0-1.241,3.709V22.1a7.441,7.441,0,0,0,1.362,4.295,4.732,4.732,0,0,0,3.939,1.758,4.96,4.96,0,0,0,1.334-.2,9.129,9.129,0,0,0,1.287-.46,7.014,7.014,0,0,0,1.03-.557,2.63,2.63,0,0,0,.591-.488l.94,1.2a4.922,4.922,0,0,1-.94.629,12.086,12.086,0,0,1-1.423.654,14.116,14.116,0,0,1-1.621.519,6.294,6.294,0,0,1-1.5.207,6.525,6.525,0,0,1-5.257-2.079,8.968,8.968,0,0,1-1.773-5.981,10.1,10.1,0,0,1,.484-3.193,8.205,8.205,0,0,1,1.334-2.539,6.247,6.247,0,0,1,2.03-1.689,5.528,5.528,0,0,1,2.575-.612,5.822,5.822,0,0,1,4.833,2.063,8.441,8.441,0,0,1,1.5,5.774l-.031.7Z" transform="translate(-100.758 -8.391)"/>
        <path id="패스_1514" data-name="패스 1514" class="cls-1" d="M210.5,20.694a6.8,6.8,0,0,1-5.392,0,5.524,5.524,0,0,1-2.045-1.6,7.343,7.343,0,0,1-1.272-2.538,11.871,11.871,0,0,1-.44-3.362,12.65,12.65,0,0,1,.41-3.361,7.091,7.091,0,0,1,1.211-2.524,5.427,5.427,0,0,1,1.97-1.591,6.206,6.206,0,0,1,2.712-.559A8.514,8.514,0,0,1,209,5.269a4.542,4.542,0,0,1,1.319.434,5.263,5.263,0,0,1,1.227.879A7.359,7.359,0,0,1,212.685,8V0h1.908V20.917h-1.908V18.574A4.833,4.833,0,0,1,210.5,20.694Zm1.8-10.18a6.506,6.506,0,0,0-.985-2.066,4.438,4.438,0,0,0-1.515-1.325,4.131,4.131,0,0,0-1.939-.459,3.68,3.68,0,0,0-3.3,1.742,8.794,8.794,0,0,0-1.12,4.784,8.575,8.575,0,0,0,1.165,4.8,3.864,3.864,0,0,0,3.439,1.758,3.788,3.788,0,0,0,1.894-.488,4.329,4.329,0,0,0,1.454-1.353,6.861,6.861,0,0,0,.925-2.078,9.913,9.913,0,0,0,.334-2.636A9.583,9.583,0,0,0,212.305,10.514Z" transform="translate(-124.572)"/>
        <path id="패스_1515" data-name="패스 1515" class="cls-1" d="M243.156,29.338V15.261h-2.043V13.673h4.182V29.338Z" transform="translate(-149.17 -8.459)"/>
        <path id="패스_1516" data-name="패스 1516" class="cls-1" d="M247.408,1.45A1.424,1.424,0,1,1,245.983.026,1.425,1.425,0,0,1,247.408,1.45Z" transform="translate(-151.302 -0.016)"/>
      </g>
      <path id="패스_1517" data-name="패스 1517" class="cls-2" d="M357.32,15.053a7.34,7.34,0,0,0-4.6-1.282h-6.188v16h4.553V24.755h1.635a7.348,7.348,0,0,0,4.6-1.3,5.037,5.037,0,0,0,2.011-4.2A5.038,5.038,0,0,0,357.32,15.053Zm-3.183,5.7a2.772,2.772,0,0,1-1.79.442h-1.26V17.4h1.26a2.772,2.772,0,0,1,1.79.442,1.755,1.755,0,0,1,.641,1.459A1.754,1.754,0,0,1,354.137,20.755Zm-19-1.149L331,13.771h-4.376v16H331V24.557c0-1.26-.022-2.675-.044-3.779H331c.663,1.016,1.37,2.056,2.1,3.072l1.923,2.7,1.9-2.7c.707-.995,1.437-2.056,2.1-3.072h.044c-.022,1.1-.044,2.519-.044,3.779v5.216h4.553v-16h-4.332Zm-18.982-5.835h-6.277V25.927h4.553v-8.31h1.68a4.052,4.052,0,0,1,2.918,1.149,4.136,4.136,0,0,1,1.149,3.006,4.136,4.136,0,0,1-1.149,3.006,4.052,4.052,0,0,1-2.918,1.149h-1.68v3.846h1.746a8.626,8.626,0,0,0,6.343-2.365,7.808,7.808,0,0,0,2.21-5.636,7.779,7.779,0,0,0-2.3-5.7A8.7,8.7,0,0,0,316.151,13.771Zm-10.124,16h3.848V25.927h-3.848Z" transform="translate(-189.331 -8.52)"/>
    </g>
  </g>
</svg>
